<svg width="105" height="104" viewBox="0 0 105 104" fill="none" xmlns="http://www.w3.org/2000/svg">
<rect width="2.83784" height="2.83784" rx="1.34409" fill="#1F8C81"/>
<rect x="11.3516" width="2.83784" height="2.83784" rx="1.34409" fill="#1F8C81"/>
<rect x="22.7031" width="2.83784" height="2.83784" rx="1.34409" fill="#1F8C81"/>
<rect x="34.0537" width="2.83784" height="2.83784" rx="1.34409" fill="#1F8C81"/>
<rect x="45.4053" width="2.83784" height="2.83784" rx="1.34409" fill="#1F8C81"/>
<rect x="56.7568" width="2.83784" height="2.83784" rx="1.34409" fill="#1F8C81"/>
<rect x="68.1084" width="2.83784" height="2.83784" rx="1.34409" fill="#1F8C81"/>
<rect x="79.46" width="2.83784" height="2.83784" rx="1.34409" fill="#1F8C81"/>
<rect x="90.8105" width="2.83784" height="2.83784" rx="1.34409" fill="#1F8C81"/>
<rect x="102.162" width="2.83784" height="2.83784" rx="1.34409" fill="#1F8C81"/>
<rect y="11.3513" width="2.83784" height="2.83784" rx="1.34409" fill="#1F8C81"/>
<rect x="11.3516" y="11.3513" width="2.83784" height="2.83784" rx="1.34409" fill="#1F8C81"/>
<rect x="22.7031" y="11.3513" width="2.83784" height="2.83784" rx="1.34409" fill="#1F8C81"/>
<rect x="34.0537" y="11.3513" width="2.83784" height="2.83784" rx="1.34409" fill="#1F8C81"/>
<rect x="45.4053" y="11.3513" width="2.83784" height="2.83784" rx="1.34409" fill="#1F8C81"/>
<rect x="56.7568" y="11.3513" width="2.83784" height="2.83784" rx="1.34409" fill="#1F8C81"/>
<rect x="68.1084" y="11.3513" width="2.83784" height="2.83784" rx="1.34409" fill="#1F8C81"/>
<rect x="79.46" y="11.3513" width="2.83784" height="2.83784" rx="1.34409" fill="#1F8C81"/>
<rect x="90.8105" y="11.3513" width="2.83784" height="2.83784" rx="1.34409" fill="#1F8C81"/>
<rect x="102.162" y="11.3513" width="2.83784" height="2.83784" rx="1.34409" fill="#1F8C81"/>
<rect y="22.7027" width="2.83784" height="2.83784" rx="1.34409" fill="#1F8C81"/>
<rect x="11.3516" y="22.7027" width="2.83784" height="2.83784" rx="1.34409" fill="#1F8C81"/>
<rect x="22.7031" y="22.7027" width="2.83784" height="2.83784" rx="1.34409" fill="#1F8C81"/>
<rect x="34.0537" y="22.7027" width="2.83784" height="2.83784" rx="1.34409" fill="#1F8C81"/>
<rect x="45.4053" y="22.7027" width="2.83784" height="2.83784" rx="1.34409" fill="#1F8C81"/>
<rect x="56.7568" y="22.7027" width="2.83784" height="2.83784" rx="1.34409" fill="#1F8C81"/>
<rect x="68.1084" y="22.7027" width="2.83784" height="2.83784" rx="1.34409" fill="#1F8C81"/>
<rect x="79.46" y="22.7027" width="2.83784" height="2.83784" rx="1.34409" fill="#1F8C81"/>
<rect x="90.8105" y="22.7027" width="2.83784" height="2.83784" rx="1.34409" fill="#1F8C81"/>
<rect x="102.162" y="22.7027" width="2.83784" height="2.83784" rx="1.34409" fill="#1F8C81"/>
<rect y="34.0541" width="2.83784" height="2.83784" rx="1.34409" fill="#1F8C81"/>
<rect x="11.3516" y="34.0541" width="2.83784" height="2.83784" rx="1.34409" fill="#1F8C81"/>
<rect x="22.7031" y="34.0541" width="2.83784" height="2.83784" rx="1.34409" fill="#1F8C81"/>
<rect x="34.0537" y="34.0541" width="2.83784" height="2.83784" rx="1.34409" fill="#1F8C81"/>
<rect x="45.4053" y="34.0541" width="2.83784" height="2.83784" rx="1.34409" fill="#1F8C81"/>
<rect x="56.7568" y="34.0541" width="2.83784" height="2.83784" rx="1.34409" fill="#1F8C81"/>
<rect x="68.1084" y="34.0541" width="2.83784" height="2.83784" rx="1.34409" fill="#1F8C81"/>
<rect x="79.46" y="34.0541" width="2.83784" height="2.83784" rx="1.34409" fill="#1F8C81"/>
<rect x="90.8105" y="34.0541" width="2.83784" height="2.83784" rx="1.34409" fill="#1F8C81"/>
<rect x="102.162" y="34.0541" width="2.83784" height="2.83784" rx="1.34409" fill="#1F8C81"/>
<rect y="45.4054" width="2.83784" height="2.83784" rx="1.34409" fill="#1F8C81"/>
<rect x="11.3516" y="45.4054" width="2.83784" height="2.83784" rx="1.34409" fill="#1F8C81"/>
<rect x="22.7031" y="45.4054" width="2.83784" height="2.83784" rx="1.34409" fill="#1F8C81"/>
<rect x="34.0537" y="45.4054" width="2.83784" height="2.83784" rx="1.34409" fill="#1F8C81"/>
<rect x="45.4053" y="45.4054" width="2.83784" height="2.83784" rx="1.34409" fill="#1F8C81"/>
<rect x="56.7568" y="45.4054" width="2.83784" height="2.83784" rx="1.34409" fill="#1F8C81"/>
<rect x="68.1084" y="45.4054" width="2.83784" height="2.83784" rx="1.34409" fill="#1F8C81"/>
<rect x="79.46" y="45.4054" width="2.83784" height="2.83784" rx="1.34409" fill="#1F8C81"/>
<rect x="90.8105" y="45.4054" width="2.83784" height="2.83784" rx="1.34409" fill="#1F8C81"/>
<rect x="102.162" y="45.4054" width="2.83784" height="2.83784" rx="1.34409" fill="#1F8C81"/>
<rect y="56.7568" width="2.83784" height="2.83784" rx="1.34409" fill="#1F8C81"/>
<rect x="11.3516" y="56.7568" width="2.83784" height="2.83784" rx="1.34409" fill="#1F8C81"/>
<rect x="22.7031" y="56.7568" width="2.83784" height="2.83784" rx="1.34409" fill="#1F8C81"/>
<rect x="34.0537" y="56.7568" width="2.83784" height="2.83784" rx="1.34409" fill="#1F8C81"/>
<rect x="45.4053" y="56.7568" width="2.83784" height="2.83784" rx="1.34409" fill="#1F8C81"/>
<rect x="56.7568" y="56.7568" width="2.83784" height="2.83784" rx="1.34409" fill="#1F8C81"/>
<rect x="68.1084" y="56.7568" width="2.83784" height="2.83784" rx="1.34409" fill="#1F8C81"/>
<rect x="79.46" y="56.7568" width="2.83784" height="2.83784" rx="1.34409" fill="#1F8C81"/>
<rect x="90.8105" y="56.7568" width="2.83784" height="2.83784" rx="1.34409" fill="#1F8C81"/>
<rect x="102.162" y="56.7568" width="2.83784" height="2.83784" rx="1.34409" fill="#1F8C81"/>
<rect y="68.1081" width="2.83784" height="2.83784" rx="1.34409" fill="#1F8C81"/>
<rect y="79.0561" width="2.83784" height="2.83784" rx="1.34409" fill="#1F8C81"/>
<rect y="90.0041" width="2.83784" height="2.83784" rx="1.34409" fill="#1F8C81"/>
<rect y="100.952" width="2.83784" height="2.83784" rx="1.34409" fill="#1F8C81"/>
<rect x="11.3516" y="68.1081" width="2.83784" height="2.83784" rx="1.34409" fill="#1F8C81"/>
<rect x="11.3516" y="79.0561" width="2.83784" height="2.83784" rx="1.34409" fill="#1F8C81"/>
<rect x="11.3516" y="90.0041" width="2.83784" height="2.83784" rx="1.34409" fill="#1F8C81"/>
<rect x="11.3516" y="100.952" width="2.83784" height="2.83784" rx="1.34409" fill="#1F8C81"/>
<rect x="22.7031" y="68.1081" width="2.83784" height="2.83784" rx="1.34409" fill="#1F8C81"/>
<rect x="22.7031" y="79.0561" width="2.83784" height="2.83784" rx="1.34409" fill="#1F8C81"/>
<rect x="22.7031" y="90.0041" width="2.83784" height="2.83784" rx="1.34409" fill="#1F8C81"/>
<rect x="22.7031" y="100.952" width="2.83784" height="2.83784" rx="1.34409" fill="#1F8C81"/>
<rect x="34.0537" y="68.1081" width="2.83784" height="2.83784" rx="1.34409" fill="#1F8C81"/>
<rect x="34.0537" y="79.0561" width="2.83784" height="2.83784" rx="1.34409" fill="#1F8C81"/>
<rect x="34.0537" y="90.0041" width="2.83784" height="2.83784" rx="1.34409" fill="#1F8C81"/>
<rect x="34.0537" y="100.952" width="2.83784" height="2.83784" rx="1.34409" fill="#1F8C81"/>
<rect x="45.4053" y="68.1081" width="2.83784" height="2.83784" rx="1.34409" fill="#1F8C81"/>
<rect x="45.4053" y="79.0561" width="2.83784" height="2.83784" rx="1.34409" fill="#1F8C81"/>
<rect x="45.4053" y="90.0041" width="2.83784" height="2.83784" rx="1.34409" fill="#1F8C81"/>
<rect x="45.4053" y="100.952" width="2.83784" height="2.83784" rx="1.34409" fill="#1F8C81"/>
<rect x="56.7568" y="68.1081" width="2.83784" height="2.83784" rx="1.34409" fill="#1F8C81"/>
<rect x="56.7568" y="79.0561" width="2.83784" height="2.83784" rx="1.34409" fill="#1F8C81"/>
<rect x="56.7568" y="90.0041" width="2.83784" height="2.83784" rx="1.34409" fill="#1F8C81"/>
<rect x="56.7568" y="100.952" width="2.83784" height="2.83784" rx="1.34409" fill="#1F8C81"/>
<rect x="68.1084" y="68.1081" width="2.83784" height="2.83784" rx="1.34409" fill="#1F8C81"/>
<rect x="68.1084" y="79.0561" width="2.83784" height="2.83784" rx="1.34409" fill="#1F8C81"/>
<rect x="68.1084" y="90.0041" width="2.83784" height="2.83784" rx="1.34409" fill="#1F8C81"/>
<rect x="68.1084" y="100.952" width="2.83784" height="2.83784" rx="1.34409" fill="#1F8C81"/>
<rect x="79.46" y="68.1081" width="2.83784" height="2.83784" rx="1.34409" fill="#1F8C81"/>
<rect x="79.46" y="79.0561" width="2.83784" height="2.83784" rx="1.34409" fill="#1F8C81"/>
<rect x="79.46" y="90.0041" width="2.83784" height="2.83784" rx="1.34409" fill="#1F8C81"/>
<rect x="79.46" y="100.952" width="2.83784" height="2.83784" rx="1.34409" fill="#1F8C81"/>
<rect x="90.8105" y="68.1081" width="2.83784" height="2.83784" rx="1.34409" fill="#1F8C81"/>
<rect x="90.8105" y="79.0561" width="2.83784" height="2.83784" rx="1.34409" fill="#1F8C81"/>
<rect x="90.8105" y="90.0041" width="2.83784" height="2.83784" rx="1.34409" fill="#1F8C81"/>
<rect x="90.8105" y="100.952" width="2.83784" height="2.83784" rx="1.34409" fill="#1F8C81"/>
<rect x="102.162" y="68.1081" width="2.83784" height="2.83784" rx="1.34409" fill="#1F8C81"/>
<rect x="102.162" y="79.0561" width="2.83784" height="2.83784" rx="1.34409" fill="#1F8C81"/>
<rect x="102.162" y="90.0041" width="2.83784" height="2.83784" rx="1.34409" fill="#1F8C81"/>
<rect x="102.162" y="100.952" width="2.83784" height="2.83784" rx="1.34409" fill="#1F8C81"/>
</svg>
