<svg width="160" height="105" viewBox="0 0 160 105" fill="none" xmlns="http://www.w3.org/2000/svg">
<path fill-rule="evenodd" clip-rule="evenodd" d="M47.5297 1V103.924Z" fill="#BF3030"/>
<path d="M47.5297 1V103.924" stroke="#BF3030" stroke-width="1.1436" stroke-linecap="round" stroke-linejoin="round"/>
<path fill-rule="evenodd" clip-rule="evenodd" d="M52.5727 11.7213V93.203Z" fill="#BF3030"/>
<path d="M52.5727 11.7213V93.203" stroke="#BF3030" stroke-width="1.1436" stroke-linecap="round" stroke-linejoin="round"/>
<path fill-rule="evenodd" clip-rule="evenodd" d="M57.6167 16.0098V88.9145Z" fill="#BF3030"/>
<path d="M57.6167 16.0098V88.9145" stroke="#BF3030" stroke-width="1.1436" stroke-linecap="round" stroke-linejoin="round"/>
<path fill-rule="evenodd" clip-rule="evenodd" d="M62.6596 7.43277V97.4915Z" fill="#BF3030"/>
<path d="M62.6596 7.43277V97.4915" stroke="#BF3030" stroke-width="1.1436" stroke-linecap="round" stroke-linejoin="round"/>
<path fill-rule="evenodd" clip-rule="evenodd" d="M67.7036 3.14426V101.78Z" fill="#BF3030"/>
<path d="M67.7036 3.14426V101.78" stroke="#BF3030" stroke-width="1.1436" stroke-linecap="round" stroke-linejoin="round"/>
<path fill-rule="evenodd" clip-rule="evenodd" d="M72.7475 20.2655V84.5932Z" fill="#BF3030"/>
<path d="M72.7475 20.2655V84.5932" stroke="#BF3030" stroke-width="1.1436" stroke-linecap="round" stroke-linejoin="round"/>
<path fill-rule="evenodd" clip-rule="evenodd" d="M77.7905 30.9867V73.8718Z" fill="#BF3030"/>
<path d="M77.7905 30.9867V73.8718" stroke="#BF3030" stroke-width="1.1436" stroke-linecap="round" stroke-linejoin="round"/>
<path fill-rule="evenodd" clip-rule="evenodd" d="M82.8344 26.6983V80.3047Z" fill="#BF3030"/>
<path d="M82.8344 26.6983V80.3047" stroke="#BF3030" stroke-width="1.1436" stroke-linecap="round" stroke-linejoin="round"/>
<path fill-rule="evenodd" clip-rule="evenodd" d="M87.8784 37.4195V69.5833Z" fill="#BF3030"/>
<path d="M87.8784 37.4195V69.5833" stroke="#BF3030" stroke-width="1.1436" stroke-linecap="round" stroke-linejoin="round"/>
<path fill-rule="evenodd" clip-rule="evenodd" d="M92.9214 41.7081V63.1507Z" fill="#BF3030"/>
<path d="M92.9214 41.7081V63.1507" stroke="#BF3030" stroke-width="1.1436" stroke-linecap="round" stroke-linejoin="round"/>
<path fill-rule="evenodd" clip-rule="evenodd" d="M97.9653 33.1311V71.7277Z" fill="#BF3030"/>
<path d="M97.9653 33.1311V71.7277" stroke="#BF3030" stroke-width="1.1436" stroke-linecap="round" stroke-linejoin="round"/>
<path fill-rule="evenodd" clip-rule="evenodd" d="M103.008 28.8426V78.1604Z" fill="#BF3030"/>
<path d="M103.008 28.8426V78.1604" stroke="#BF3030" stroke-width="1.1436" stroke-linecap="round" stroke-linejoin="round"/>
<path fill-rule="evenodd" clip-rule="evenodd" d="M108.052 35.2753V71.7277Z" fill="#BF3030"/>
<path d="M108.052 35.2753V71.7277" stroke="#BF3030" stroke-width="1.1436" stroke-linecap="round" stroke-linejoin="round"/>
<path fill-rule="evenodd" clip-rule="evenodd" d="M113.096 35.2753V71.7277Z" fill="#BF3030"/>
<path d="M113.096 35.2753V71.7277" stroke="#BF3030" stroke-width="1.1436" stroke-linecap="round" stroke-linejoin="round"/>
<path fill-rule="evenodd" clip-rule="evenodd" d="M158.488 21.1191V85.2683Z" fill="#1F8C81"/>
<path d="M158.488 21.1191V85.2683" stroke="#1F8C81" stroke-width="1.1436" stroke-linecap="round" stroke-linejoin="round"/>
<path fill-rule="evenodd" clip-rule="evenodd" d="M153.445 31.8106V74.5767Z" fill="#1F8C81"/>
<path d="M153.445 31.8106V74.5767" stroke="#1F8C81" stroke-width="1.1436" stroke-linecap="round" stroke-linejoin="round"/>
<path fill-rule="evenodd" clip-rule="evenodd" d="M148.401 27.5341V80.9917Z" fill="#1F8C81"/>
<path d="M148.401 27.5341V80.9917" stroke="#1F8C81" stroke-width="1.1436" stroke-linecap="round" stroke-linejoin="round"/>
<path fill-rule="evenodd" clip-rule="evenodd" d="M143.357 38.2255V70.3001Z" fill="#1F8C81"/>
<path d="M143.357 38.2255V70.3001" stroke="#1F8C81" stroke-width="1.1436" stroke-linecap="round" stroke-linejoin="round"/>
<path fill-rule="evenodd" clip-rule="evenodd" d="M138.314 42.5021V63.8851Z" fill="#1F8C81"/>
<path d="M138.314 42.5021V63.8851" stroke="#1F8C81" stroke-width="1.1436" stroke-linecap="round" stroke-linejoin="round"/>
<path fill-rule="evenodd" clip-rule="evenodd" d="M133.27 33.9489V72.4383Z" fill="#1F8C81"/>
<path d="M133.27 33.9489V72.4383" stroke="#1F8C81" stroke-width="1.1436" stroke-linecap="round" stroke-linejoin="round"/>
<path fill-rule="evenodd" clip-rule="evenodd" d="M128.227 29.6723V78.8533Z" fill="#1F8C81"/>
<path d="M128.227 29.6723V78.8533" stroke="#1F8C81" stroke-width="1.1436" stroke-linecap="round" stroke-linejoin="round"/>
<path fill-rule="evenodd" clip-rule="evenodd" d="M123.183 25.3957V83.1299Z" fill="#1F8C81"/>
<path d="M123.183 25.3957V83.1299" stroke="#1F8C81" stroke-width="1.1436" stroke-linecap="round" stroke-linejoin="round"/>
<path fill-rule="evenodd" clip-rule="evenodd" d="M118.139 44.6405V63.8852Z" fill="#1F8C81"/>
<path d="M118.139 44.6405V63.8852" stroke="#1F8C81" stroke-width="1.1436" stroke-linecap="round" stroke-linejoin="round"/>
<path fill-rule="evenodd" clip-rule="evenodd" d="M41.4771 22.2854V86.2401Z" fill="#F28627"/>
<path d="M41.4771 22.2854V86.2401" stroke="#F28627" stroke-width="1.1436" stroke-linecap="round" stroke-linejoin="round"/>
<path fill-rule="evenodd" clip-rule="evenodd" d="M36.4331 32.9445V75.581Z" fill="#F28627"/>
<path d="M36.4331 32.9445V75.581" stroke="#F28627" stroke-width="1.1436" stroke-linecap="round" stroke-linejoin="round"/>
<path fill-rule="evenodd" clip-rule="evenodd" d="M31.3902 28.6808V81.9764Z" fill="#F28627"/>
<path d="M31.3902 28.6808V81.9764" stroke="#F28627" stroke-width="1.1436" stroke-linecap="round" stroke-linejoin="round"/>
<path fill-rule="evenodd" clip-rule="evenodd" d="M26.3462 39.34V71.3174Z" fill="#F28627"/>
<path d="M26.3462 39.34V71.3174" stroke="#F28627" stroke-width="1.1436" stroke-linecap="round" stroke-linejoin="round"/>
<path fill-rule="evenodd" clip-rule="evenodd" d="M21.3023 43.6036V64.9219Z" fill="#F28627"/>
<path d="M21.3023 43.6036V64.9219" stroke="#F28627" stroke-width="1.1436" stroke-linecap="round" stroke-linejoin="round"/>
<path fill-rule="evenodd" clip-rule="evenodd" d="M16.2593 35.0763V73.4491Z" fill="#F28627"/>
<path d="M16.2593 35.0763V73.4491" stroke="#F28627" stroke-width="1.1436" stroke-linecap="round" stroke-linejoin="round"/>
<path fill-rule="evenodd" clip-rule="evenodd" d="M11.2154 30.8127V79.8446Z" fill="#F28627"/>
<path d="M11.2154 30.8127V79.8446" stroke="#F28627" stroke-width="1.1436" stroke-linecap="round" stroke-linejoin="round"/>
<path fill-rule="evenodd" clip-rule="evenodd" d="M6.1724 26.549V84.1083Z" fill="#F28627"/>
<path d="M6.1724 26.549V84.1083" stroke="#F28627" stroke-width="1.1436" stroke-linecap="round" stroke-linejoin="round"/>
<path fill-rule="evenodd" clip-rule="evenodd" d="M1.12845 45.7355V64.9219Z" fill="#F28627"/>
<path d="M1.12845 45.7355V64.9219" stroke="#F28627" stroke-width="1.1436" stroke-linecap="round" stroke-linejoin="round"/>
</svg>
